<?xml version="1.0" encoding="UTF-8" standalone="no"?>
<!DOCTYPE svg PUBLIC "-//W3C//DTD SVG 1.1//EN"
 "http://www.w3.org/Graphics/SVG/1.1/DTD/svg11.dtd">
<!-- Generated by graphviz version 2.36.0 (20140111.2315)
 -->
<!-- Title: /home/gernot/src/github/includeDependenciesDemo/a.h Pages: 1 -->
<svg width="162pt" height="118pt"
 viewBox="0.00 0.00 162.00 118.00" xmlns="http://www.w3.org/2000/svg" xmlns:xlink="http://www.w3.org/1999/xlink">
<g id="graph0" class="graph" transform="scale(1 1) rotate(0) translate(4 114)">
<title>/home/gernot/src/github/includeDependenciesDemo/a.h</title>
<polygon fill="white" stroke="none" points="-4,4 -4,-114 158,-114 158,4 -4,4"/>
<!-- Node1 -->
<g id="node1" class="node"><title>Node1</title>
<polygon fill="#bfbfbf" stroke="black" points="-0.5,-79 -0.5,-109 154.5,-109 154.5,-79 -0.5,-79"/>
<text text-anchor="start" x="7.5" y="-97" font-family="Helvetica,sans-Serif" font-size="10.00">/home/gernot/src/github</text>
<text text-anchor="middle" x="77" y="-86" font-family="Helvetica,sans-Serif" font-size="10.00">/includeDependenciesDemo/a.h</text>
</g>
<!-- Node2 -->
<g id="node2" class="node"><title>Node2</title>
<g id="a_node2"><a xlink:href="main_8cpp.html" target="_top" xlink:title="/home/gernot/src/github\l/includeDependenciesDemo\l/main.cpp">
<polygon fill="white" stroke="black" points="7.5,-0.5 7.5,-41.5 146.5,-41.5 146.5,-0.5 7.5,-0.5"/>
<text text-anchor="start" x="15.5" y="-29.5" font-family="Helvetica,sans-Serif" font-size="10.00">/home/gernot/src/github</text>
<text text-anchor="start" x="15.5" y="-18.5" font-family="Helvetica,sans-Serif" font-size="10.00">/includeDependenciesDemo</text>
<text text-anchor="middle" x="77" y="-7.5" font-family="Helvetica,sans-Serif" font-size="10.00">/main.cpp</text>
</a>
</g>
</g>
<!-- Node1&#45;&gt;Node2 -->
<g id="edge1" class="edge"><title>Node1&#45;&gt;Node2</title>
<path fill="none" stroke="midnightblue" d="M77,-68.8534C77,-59.9872 77,-50.065 77,-41.642"/>
<polygon fill="midnightblue" stroke="midnightblue" points="73.5001,-68.9727 77,-78.9727 80.5001,-68.9727 73.5001,-68.9727"/>
</g>
</g>
</svg>
