<?xml version="1.0" encoding="UTF-8" standalone="no"?>
<!DOCTYPE svg PUBLIC "-//W3C//DTD SVG 1.1//EN"
 "http://www.w3.org/Graphics/SVG/1.1/DTD/svg11.dtd">
<!-- Generated by graphviz version 2.36.0 (20140111.2315)
 -->
<!-- Title: /home/gernot/src/github/includeDependenciesDemo/a.h Pages: 1 -->
<svg width="162pt" height="208pt"
 viewBox="0.00 0.00 162.00 208.00" xmlns="http://www.w3.org/2000/svg" xmlns:xlink="http://www.w3.org/1999/xlink">
<g id="graph0" class="graph" transform="scale(1 1) rotate(0) translate(4 204)">
<title>/home/gernot/src/github/includeDependenciesDemo/a.h</title>
<polygon fill="white" stroke="none" points="-4,4 -4,-204 158,-204 158,4 -4,4"/>
<!-- Node1 -->
<g id="node1" class="node"><title>Node1</title>
<polygon fill="#bfbfbf" stroke="black" points="-0.5,-169 -0.5,-199 154.5,-199 154.5,-169 -0.5,-169"/>
<text text-anchor="start" x="7.5" y="-187" font-family="Helvetica,sans-Serif" font-size="10.00">/home/gernot/src/github</text>
<text text-anchor="middle" x="77" y="-176" font-family="Helvetica,sans-Serif" font-size="10.00">/includeDependenciesDemo/a.h</text>
</g>
<!-- Node2 -->
<g id="node2" class="node"><title>Node2</title>
<g id="a_node2"><a xlink:href="b_8h.html" target="_top" xlink:title="b.h">
<polygon fill="white" stroke="black" points="62,-112.5 62,-131.5 92,-131.5 92,-112.5 62,-112.5"/>
<text text-anchor="middle" x="77" y="-119.5" font-family="Helvetica,sans-Serif" font-size="10.00">b.h</text>
</a>
</g>
</g>
<!-- Node1&#45;&gt;Node2 -->
<g id="edge1" class="edge"><title>Node1&#45;&gt;Node2</title>
<path fill="none" stroke="midnightblue" d="M77,-168.781C77,-160.781 77,-150.689 77,-142.017"/>
<polygon fill="midnightblue" stroke="midnightblue" points="80.5001,-141.73 77,-131.731 73.5001,-141.731 80.5001,-141.73"/>
</g>
<!-- Node3 -->
<g id="node3" class="node"><title>Node3</title>
<g id="a_node3"><a xlink:href="c_8h.html" target="_top" xlink:title="c.h">
<polygon fill="white" stroke="black" points="62,-56.5 62,-75.5 92,-75.5 92,-56.5 62,-56.5"/>
<text text-anchor="middle" x="77" y="-63.5" font-family="Helvetica,sans-Serif" font-size="10.00">c.h</text>
</a>
</g>
</g>
<!-- Node2&#45;&gt;Node3 -->
<g id="edge2" class="edge"><title>Node2&#45;&gt;Node3</title>
<path fill="none" stroke="midnightblue" d="M77,-112.083C77,-105.006 77,-94.8611 77,-85.9865"/>
<polygon fill="midnightblue" stroke="midnightblue" points="80.5001,-85.751 77,-75.7511 73.5001,-85.7511 80.5001,-85.751"/>
</g>
<!-- Node4 -->
<g id="node4" class="node"><title>Node4</title>
<g id="a_node4"><a xlink:href="d_8h.html" target="_top" xlink:title="d.h">
<polygon fill="white" stroke="black" points="62,-0.5 62,-19.5 92,-19.5 92,-0.5 62,-0.5"/>
<text text-anchor="middle" x="77" y="-7.5" font-family="Helvetica,sans-Serif" font-size="10.00">d.h</text>
</a>
</g>
</g>
<!-- Node3&#45;&gt;Node4 -->
<g id="edge3" class="edge"><title>Node3&#45;&gt;Node4</title>
<path fill="none" stroke="midnightblue" d="M77,-56.083C77,-49.0059 77,-38.8611 77,-29.9865"/>
<polygon fill="midnightblue" stroke="midnightblue" points="80.5001,-29.751 77,-19.7511 73.5001,-29.7511 80.5001,-29.751"/>
</g>
</g>
</svg>
