<?xml version="1.0" encoding="UTF-8" standalone="no"?>
<!DOCTYPE svg PUBLIC "-//W3C//DTD SVG 1.1//EN"
 "http://www.w3.org/Graphics/SVG/1.1/DTD/svg11.dtd">
<!-- Generated by graphviz version 2.36.0 (20140111.2315)
 -->
<!-- Title: /home/gernot/src/github/includeDependenciesDemo/d.h Pages: 1 -->
<svg width="162pt" height="322pt"
 viewBox="0.00 0.00 162.00 322.00" xmlns="http://www.w3.org/2000/svg" xmlns:xlink="http://www.w3.org/1999/xlink">
<g id="graph0" class="graph" transform="scale(1 1) rotate(0) translate(4 318)">
<title>/home/gernot/src/github/includeDependenciesDemo/d.h</title>
<polygon fill="white" stroke="none" points="-4,4 -4,-318 158,-318 158,4 -4,4"/>
<!-- Node1 -->
<g id="node1" class="node"><title>Node1</title>
<polygon fill="#bfbfbf" stroke="black" points="-0.5,-283 -0.5,-313 154.5,-313 154.5,-283 -0.5,-283"/>
<text text-anchor="start" x="7.5" y="-301" font-family="Helvetica,sans-Serif" font-size="10.00">/home/gernot/src/github</text>
<text text-anchor="middle" x="77" y="-290" font-family="Helvetica,sans-Serif" font-size="10.00">/includeDependenciesDemo/d.h</text>
</g>
<!-- Node2 -->
<g id="node2" class="node"><title>Node2</title>
<g id="a_node2"><a xlink:href="c_8h.html" target="_top" xlink:title="/home/gernot/src/github\l/includeDependenciesDemo/c.h">
<polygon fill="white" stroke="black" points="-0.5,-215 -0.5,-245 154.5,-245 154.5,-215 -0.5,-215"/>
<text text-anchor="start" x="7.5" y="-233" font-family="Helvetica,sans-Serif" font-size="10.00">/home/gernot/src/github</text>
<text text-anchor="middle" x="77" y="-222" font-family="Helvetica,sans-Serif" font-size="10.00">/includeDependenciesDemo/c.h</text>
</a>
</g>
</g>
<!-- Node1&#45;&gt;Node2 -->
<g id="edge1" class="edge"><title>Node1&#45;&gt;Node2</title>
<path fill="none" stroke="midnightblue" d="M77,-272.532C77,-263.361 77,-253.245 77,-245.293"/>
<polygon fill="midnightblue" stroke="midnightblue" points="73.5001,-272.679 77,-282.679 80.5001,-272.679 73.5001,-272.679"/>
</g>
<!-- Node3 -->
<g id="node3" class="node"><title>Node3</title>
<g id="a_node3"><a xlink:href="b_8h.html" target="_top" xlink:title="/home/gernot/src/github\l/includeDependenciesDemo/b.h">
<polygon fill="white" stroke="black" points="-0.5,-147 -0.5,-177 154.5,-177 154.5,-147 -0.5,-147"/>
<text text-anchor="start" x="7.5" y="-165" font-family="Helvetica,sans-Serif" font-size="10.00">/home/gernot/src/github</text>
<text text-anchor="middle" x="77" y="-154" font-family="Helvetica,sans-Serif" font-size="10.00">/includeDependenciesDemo/b.h</text>
</a>
</g>
</g>
<!-- Node2&#45;&gt;Node3 -->
<g id="edge2" class="edge"><title>Node2&#45;&gt;Node3</title>
<path fill="none" stroke="midnightblue" d="M77,-204.532C77,-195.361 77,-185.245 77,-177.293"/>
<polygon fill="midnightblue" stroke="midnightblue" points="73.5001,-204.679 77,-214.679 80.5001,-204.679 73.5001,-204.679"/>
</g>
<!-- Node4 -->
<g id="node4" class="node"><title>Node4</title>
<g id="a_node4"><a xlink:href="a_8h.html" target="_top" xlink:title="/home/gernot/src/github\l/includeDependenciesDemo/a.h">
<polygon fill="white" stroke="black" points="-0.5,-79 -0.5,-109 154.5,-109 154.5,-79 -0.5,-79"/>
<text text-anchor="start" x="7.5" y="-97" font-family="Helvetica,sans-Serif" font-size="10.00">/home/gernot/src/github</text>
<text text-anchor="middle" x="77" y="-86" font-family="Helvetica,sans-Serif" font-size="10.00">/includeDependenciesDemo/a.h</text>
</a>
</g>
</g>
<!-- Node3&#45;&gt;Node4 -->
<g id="edge3" class="edge"><title>Node3&#45;&gt;Node4</title>
<path fill="none" stroke="midnightblue" d="M77,-136.532C77,-127.361 77,-117.245 77,-109.293"/>
<polygon fill="midnightblue" stroke="midnightblue" points="73.5001,-136.679 77,-146.679 80.5001,-136.679 73.5001,-136.679"/>
</g>
<!-- Node5 -->
<g id="node5" class="node"><title>Node5</title>
<g id="a_node5"><a xlink:href="main_8cpp.html" target="_top" xlink:title="/home/gernot/src/github\l/includeDependenciesDemo\l/main.cpp">
<polygon fill="white" stroke="black" points="7.5,-0.5 7.5,-41.5 146.5,-41.5 146.5,-0.5 7.5,-0.5"/>
<text text-anchor="start" x="15.5" y="-29.5" font-family="Helvetica,sans-Serif" font-size="10.00">/home/gernot/src/github</text>
<text text-anchor="start" x="15.5" y="-18.5" font-family="Helvetica,sans-Serif" font-size="10.00">/includeDependenciesDemo</text>
<text text-anchor="middle" x="77" y="-7.5" font-family="Helvetica,sans-Serif" font-size="10.00">/main.cpp</text>
</a>
</g>
</g>
<!-- Node4&#45;&gt;Node5 -->
<g id="edge4" class="edge"><title>Node4&#45;&gt;Node5</title>
<path fill="none" stroke="midnightblue" d="M77,-68.8534C77,-59.9872 77,-50.065 77,-41.642"/>
<polygon fill="midnightblue" stroke="midnightblue" points="73.5001,-68.9727 77,-78.9727 80.5001,-68.9727 73.5001,-68.9727"/>
</g>
</g>
</svg>
