<?xml version="1.0" encoding="UTF-8" standalone="no"?>
<!DOCTYPE svg PUBLIC "-//W3C//DTD SVG 1.1//EN"
 "http://www.w3.org/Graphics/SVG/1.1/DTD/svg11.dtd">
<!-- Generated by graphviz version 2.36.0 (20140111.2315)
 -->
<!-- Title: /home/gernot/src/github/includeDependenciesDemo/main.cpp Pages: 1 -->
<svg width="146pt" height="274pt"
 viewBox="0.00 0.00 146.00 274.00" xmlns="http://www.w3.org/2000/svg" xmlns:xlink="http://www.w3.org/1999/xlink">
<g id="graph0" class="graph" transform="scale(1 1) rotate(0) translate(4 270)">
<title>/home/gernot/src/github/includeDependenciesDemo/main.cpp</title>
<polygon fill="white" stroke="none" points="-4,4 -4,-270 142,-270 142,4 -4,4"/>
<!-- Node1 -->
<g id="node1" class="node"><title>Node1</title>
<polygon fill="#bfbfbf" stroke="black" points="-0.5,-224.5 -0.5,-265.5 138.5,-265.5 138.5,-224.5 -0.5,-224.5"/>
<text text-anchor="start" x="7.5" y="-253.5" font-family="Helvetica,sans-Serif" font-size="10.00">/home/gernot/src/github</text>
<text text-anchor="start" x="7.5" y="-242.5" font-family="Helvetica,sans-Serif" font-size="10.00">/includeDependenciesDemo</text>
<text text-anchor="middle" x="69" y="-231.5" font-family="Helvetica,sans-Serif" font-size="10.00">/main.cpp</text>
</g>
<!-- Node2 -->
<g id="node2" class="node"><title>Node2</title>
<g id="a_node2"><a xlink:href="a_8h.html" target="_top" xlink:title="a.h">
<polygon fill="white" stroke="black" points="24,-168.5 24,-187.5 54,-187.5 54,-168.5 24,-168.5"/>
<text text-anchor="middle" x="39" y="-175.5" font-family="Helvetica,sans-Serif" font-size="10.00">a.h</text>
</a>
</g>
</g>
<!-- Node1&#45;&gt;Node2 -->
<g id="edge1" class="edge"><title>Node1&#45;&gt;Node2</title>
<path fill="none" stroke="midnightblue" d="M59.999,-224.498C55.9302,-215.682 51.1562,-205.339 47.1892,-196.743"/>
<polygon fill="midnightblue" stroke="midnightblue" points="50.362,-195.265 42.9935,-187.652 44.0062,-198.199 50.362,-195.265"/>
</g>
<!-- Node6 -->
<g id="node6" class="node"><title>Node6</title>
<polygon fill="white" stroke="#bfbfbf" points="72,-168.5 72,-187.5 126,-187.5 126,-168.5 72,-168.5"/>
<text text-anchor="middle" x="99" y="-175.5" font-family="Helvetica,sans-Serif" font-size="10.00">iostream</text>
</g>
<!-- Node1&#45;&gt;Node6 -->
<g id="edge5" class="edge"><title>Node1&#45;&gt;Node6</title>
<path fill="none" stroke="midnightblue" d="M78.001,-224.498C82.0698,-215.682 86.8438,-205.339 90.8108,-196.743"/>
<polygon fill="midnightblue" stroke="midnightblue" points="93.9938,-198.199 95.0065,-187.652 87.638,-195.265 93.9938,-198.199"/>
</g>
<!-- Node3 -->
<g id="node3" class="node"><title>Node3</title>
<g id="a_node3"><a xlink:href="b_8h.html" target="_top" xlink:title="b.h">
<polygon fill="white" stroke="black" points="24,-112.5 24,-131.5 54,-131.5 54,-112.5 24,-112.5"/>
<text text-anchor="middle" x="39" y="-119.5" font-family="Helvetica,sans-Serif" font-size="10.00">b.h</text>
</a>
</g>
</g>
<!-- Node2&#45;&gt;Node3 -->
<g id="edge2" class="edge"><title>Node2&#45;&gt;Node3</title>
<path fill="none" stroke="midnightblue" d="M39,-168.083C39,-161.006 39,-150.861 39,-141.986"/>
<polygon fill="midnightblue" stroke="midnightblue" points="42.5001,-141.751 39,-131.751 35.5001,-141.751 42.5001,-141.751"/>
</g>
<!-- Node4 -->
<g id="node4" class="node"><title>Node4</title>
<g id="a_node4"><a xlink:href="c_8h.html" target="_top" xlink:title="c.h">
<polygon fill="white" stroke="black" points="24,-56.5 24,-75.5 54,-75.5 54,-56.5 24,-56.5"/>
<text text-anchor="middle" x="39" y="-63.5" font-family="Helvetica,sans-Serif" font-size="10.00">c.h</text>
</a>
</g>
</g>
<!-- Node3&#45;&gt;Node4 -->
<g id="edge3" class="edge"><title>Node3&#45;&gt;Node4</title>
<path fill="none" stroke="midnightblue" d="M39,-112.083C39,-105.006 39,-94.8611 39,-85.9865"/>
<polygon fill="midnightblue" stroke="midnightblue" points="42.5001,-85.751 39,-75.7511 35.5001,-85.7511 42.5001,-85.751"/>
</g>
<!-- Node5 -->
<g id="node5" class="node"><title>Node5</title>
<g id="a_node5"><a xlink:href="d_8h.html" target="_top" xlink:title="d.h">
<polygon fill="white" stroke="black" points="24,-0.5 24,-19.5 54,-19.5 54,-0.5 24,-0.5"/>
<text text-anchor="middle" x="39" y="-7.5" font-family="Helvetica,sans-Serif" font-size="10.00">d.h</text>
</a>
</g>
</g>
<!-- Node4&#45;&gt;Node5 -->
<g id="edge4" class="edge"><title>Node4&#45;&gt;Node5</title>
<path fill="none" stroke="midnightblue" d="M39,-56.083C39,-49.0059 39,-38.8611 39,-29.9865"/>
<polygon fill="midnightblue" stroke="midnightblue" points="42.5001,-29.751 39,-19.7511 35.5001,-29.7511 42.5001,-29.751"/>
</g>
</g>
</svg>
